# xmcd
# 
# Track frame offsets:
#     150
#     14598
#     35373
#     51428
#     66193
#     85158
#     106288
#     119186
#     147425
#     160637
# 
# Disc length: 2435
# 
# Revision: 12
# Processed by: cddbd v1.5.2PL0 Copyright (c) Steve Scherf et al.
# Submitted via: fre:ac v1.0.31
# 
DISCID=8c09810a
DTITLE=Ben Harper - Get Up!
DYEAR=2013
DGENRE=Blues
TTITLE0=Don't Look Twice
TTITLE1=I'm In I'm Out and I'm Gone
TTITLE2=We Can't End This Way
TTITLE3=I Don't Believe a Word You Say
TTITLE4=You Found Another Lover (I Lost Another Friend)
TTITLE5=I Ride at Dawn
TTITLE6=Blood Side Out
TTITLE7=Get Up!
TTITLE8=She Got Kick
TTITLE9=All That Matters Now
EXTD=
EXTT0=
EXTT1=
EXTT2=
EXTT3=
EXTT4=
EXTT5=
EXTT6=
EXTT7=
EXTT8=
EXTT9=
PLAYORDER=
